<mxfile host="app.diagrams.net" modified="2021-06-13T07:37:10.542Z" agent="5.0 (Macintosh; Intel Mac OS X 10_15_7) AppleWebKit/537.36 (KHTML, like Gecko) Chrome/91.0.4472.77 Safari/537.36" etag="crCqNXWu4w0QIPG0AKso" version="14.7.7" type="github">
  <diagram id="6AhbfbZRLbzXQU_2mes7" name="Page-1">
    <mxGraphModel dx="2466" dy="2259" grid="1" gridSize="10" guides="1" tooltips="1" connect="1" arrows="1" fold="1" page="0" pageScale="1" pageWidth="850" pageHeight="1100" math="0" shadow="0">
      <root>
        <mxCell id="0" />
        <mxCell id="1" parent="0" />
        <mxCell id="X5J0RskGUfn2iMmxmOIG-72" value="" style="whiteSpace=wrap;html=1;dashed=0;labelBackgroundColor=#ffffff;fillColor=none;gradientColor=#4D72F3;fontFamily=PT Mono;fontSource=https%3A%2F%2Ffonts.googleapis.com%2Fcss%3Ffamily%3DPT%2BMono;fontSize=17;fontColor=#232F3E;" parent="1" vertex="1">
          <mxGeometry x="1360" y="-385" width="340" height="376" as="geometry" />
        </mxCell>
        <mxCell id="X5J0RskGUfn2iMmxmOIG-57" style="edgeStyle=orthogonalEdgeStyle;rounded=0;orthogonalLoop=1;jettySize=auto;html=1;entryX=0;entryY=0.5;entryDx=0;entryDy=0;entryPerimeter=0;endFill=1;targetPerimeterSpacing=3;fontSize=23;fontColor=#232F3E;exitX=0.75;exitY=1;exitDx=0;exitDy=0;exitPerimeter=0;startArrow=classic;startFill=1;endArrow=classic;fontFamily=PT Mono;fontSource=https%3A%2F%2Ffonts.googleapis.com%2Fcss%3Ffamily%3DPT%2BMono;" parent="1" source="X5J0RskGUfn2iMmxmOIG-5" target="X5J0RskGUfn2iMmxmOIG-41" edge="1">
          <mxGeometry relative="1" as="geometry" />
        </mxCell>
        <mxCell id="X5J0RskGUfn2iMmxmOIG-61" value="Reads documents" style="edgeLabel;html=1;align=center;verticalAlign=middle;resizable=0;points=[];fontSize=23;fontColor=#232F3E;fontFamily=PT Mono;fontSource=https%3A%2F%2Ffonts.googleapis.com%2Fcss%3Ffamily%3DPT%2BMono;" parent="X5J0RskGUfn2iMmxmOIG-57" vertex="1" connectable="0">
          <mxGeometry x="-0.3182" y="1" relative="1" as="geometry">
            <mxPoint x="-10" y="-23.71" as="offset" />
          </mxGeometry>
        </mxCell>
        <mxCell id="X5J0RskGUfn2iMmxmOIG-51" style="edgeStyle=orthogonalEdgeStyle;rounded=0;orthogonalLoop=1;jettySize=auto;html=1;entryX=1;entryY=0.5;entryDx=0;entryDy=0;entryPerimeter=0;endFill=1;targetPerimeterSpacing=3;fontSize=23;fontColor=#232F3E;startArrow=classic;startFill=1;endArrow=classic;fontFamily=PT Mono;fontSource=https%3A%2F%2Ffonts.googleapis.com%2Fcss%3Ffamily%3DPT%2BMono;" parent="1" source="X5J0RskGUfn2iMmxmOIG-2" target="X5J0RskGUfn2iMmxmOIG-5" edge="1">
          <mxGeometry relative="1" as="geometry" />
        </mxCell>
        <mxCell id="X5J0RskGUfn2iMmxmOIG-52" style="edgeStyle=orthogonalEdgeStyle;rounded=0;orthogonalLoop=1;jettySize=auto;html=1;entryX=0;entryY=0.5;entryDx=0;entryDy=0;entryPerimeter=0;endFill=1;targetPerimeterSpacing=3;fontSize=23;fontColor=#232F3E;startArrow=classic;startFill=1;endArrow=classic;fontFamily=PT Mono;fontSource=https%3A%2F%2Ffonts.googleapis.com%2Fcss%3Ffamily%3DPT%2BMono;" parent="1" source="X5J0RskGUfn2iMmxmOIG-2" target="X5J0RskGUfn2iMmxmOIG-8" edge="1">
          <mxGeometry relative="1" as="geometry" />
        </mxCell>
        <mxCell id="X5J0RskGUfn2iMmxmOIG-2" value="&lt;font style=&quot;font-size: 17px&quot;&gt;RDS&lt;br&gt;Stores the state of each model&lt;br style=&quot;font-size: 17px&quot;&gt;&lt;/font&gt;" style="points=[[0,0,0],[0.25,0,0],[0.5,0,0],[0.75,0,0],[1,0,0],[0,1,0],[0.25,1,0],[0.5,1,0],[0.75,1,0],[1,1,0],[0,0.25,0],[0,0.5,0],[0,0.75,0],[1,0.25,0],[1,0.5,0],[1,0.75,0]];outlineConnect=0;fontColor=#232F3E;gradientColor=#4D72F3;gradientDirection=north;fillColor=#3334B9;strokeColor=#ffffff;dashed=0;verticalLabelPosition=bottom;verticalAlign=top;align=center;html=1;fontSize=17;fontStyle=0;aspect=fixed;shape=mxgraph.aws4.resourceIcon;resIcon=mxgraph.aws4.rds;fontFamily=PT Mono;fontSource=https%3A%2F%2Ffonts.googleapis.com%2Fcss%3Ffamily%3DPT%2BMono;" parent="1" vertex="1">
          <mxGeometry x="508" y="-80" width="78" height="78" as="geometry" />
        </mxCell>
        <mxCell id="X5J0RskGUfn2iMmxmOIG-24" style="edgeStyle=orthogonalEdgeStyle;rounded=0;orthogonalLoop=1;jettySize=auto;html=1;endFill=1;targetPerimeterSpacing=3;fontSize=23;fontColor=#232F3E;jumpStyle=none;startArrow=classic;startFill=1;endArrow=classic;fontFamily=PT Mono;fontSource=https%3A%2F%2Ffonts.googleapis.com%2Fcss%3Ffamily%3DPT%2BMono;" parent="1" source="X5J0RskGUfn2iMmxmOIG-3" target="X5J0RskGUfn2iMmxmOIG-18" edge="1">
          <mxGeometry relative="1" as="geometry" />
        </mxCell>
        <mxCell id="X5J0RskGUfn2iMmxmOIG-30" value="Route: /*" style="edgeLabel;html=1;align=center;verticalAlign=middle;resizable=0;points=[];fontSize=23;fontColor=#232F3E;fontFamily=PT Mono;fontSource=https%3A%2F%2Ffonts.googleapis.com%2Fcss%3Ffamily%3DPT%2BMono;" parent="X5J0RskGUfn2iMmxmOIG-24" vertex="1" connectable="0">
          <mxGeometry x="0.3385" y="-37" relative="1" as="geometry">
            <mxPoint x="-37.43" y="-66" as="offset" />
          </mxGeometry>
        </mxCell>
        <mxCell id="X5J0RskGUfn2iMmxmOIG-25" style="edgeStyle=orthogonalEdgeStyle;rounded=0;orthogonalLoop=1;jettySize=auto;html=1;entryX=0.5;entryY=0;entryDx=0;entryDy=0;entryPerimeter=0;endFill=1;targetPerimeterSpacing=3;fontSize=23;fontColor=#232F3E;startArrow=classic;startFill=1;endArrow=classic;fontFamily=PT Mono;fontSource=https%3A%2F%2Ffonts.googleapis.com%2Fcss%3Ffamily%3DPT%2BMono;" parent="1" source="X5J0RskGUfn2iMmxmOIG-3" target="X5J0RskGUfn2iMmxmOIG-7" edge="1">
          <mxGeometry relative="1" as="geometry" />
        </mxCell>
        <mxCell id="X5J0RskGUfn2iMmxmOIG-28" value="&lt;span style=&quot;color: rgba(0, 0, 0, 0); font-size: 0px;&quot;&gt;%3CmxGraphModel%3E%3Croot%3E%3CmxCell%20id%3D%220%22%2F%3E%3CmxCell%20id%3D%221%22%20parent%3D%220%22%2F%3E%3CmxCell%20id%3D%222%22%20value%3D%22%26lt%3Bfont%20face%3D%26quot%3BPermanent%20Marker%26quot%3B%26gt%3B%2Fapi%2F*%26lt%3B%2Ffont%26gt%3B%22%20style%3D%22text%3Bhtml%3D1%3Balign%3Dcenter%3BverticalAlign%3Dmiddle%3Bresizable%3D0%3Bpoints%3D%5B%5D%3Bautosize%3D1%3BfontSize%3D23%3BfontColor%3D%23232F3E%3B%22%20vertex%3D%221%22%20parent%3D%221%22%3E%3CmxGeometry%20x%3D%22530%22%20y%3D%22-420%22%20width%3D%2280%22%20height%3D%2230%22%20as%3D%22geometry%22%2F%3E%3C%2FmxCell%3E%3C%2Froot%3E%3C%2FmxGraphModel%3E&lt;/span&gt;" style="edgeLabel;html=1;align=center;verticalAlign=middle;resizable=0;points=[];fontSize=23;fontColor=#232F3E;fontFamily=PT Mono;fontSource=https%3A%2F%2Ffonts.googleapis.com%2Fcss%3Ffamily%3DPT%2BMono;" parent="X5J0RskGUfn2iMmxmOIG-25" vertex="1" connectable="0">
          <mxGeometry x="-0.1553" y="38" relative="1" as="geometry">
            <mxPoint as="offset" />
          </mxGeometry>
        </mxCell>
        <mxCell id="X5J0RskGUfn2iMmxmOIG-29" value="Route: /api/*" style="edgeLabel;html=1;align=center;verticalAlign=middle;resizable=0;points=[];fontSize=23;fontColor=#232F3E;fontFamily=PT Mono;fontSource=https%3A%2F%2Ffonts.googleapis.com%2Fcss%3Ffamily%3DPT%2BMono;" parent="X5J0RskGUfn2iMmxmOIG-25" vertex="1" connectable="0">
          <mxGeometry x="-0.1491" y="35" relative="1" as="geometry">
            <mxPoint x="-62.29" y="-64" as="offset" />
          </mxGeometry>
        </mxCell>
        <mxCell id="X5J0RskGUfn2iMmxmOIG-3" value="&lt;font data-font-src=&quot;https://fonts.googleapis.com/css?family=Permanent+Marker&quot; style=&quot;font-size: 17px;&quot;&gt;Elastic Beanstalk&lt;/font&gt;" style="points=[[0,0,0],[0.25,0,0],[0.5,0,0],[0.75,0,0],[1,0,0],[0,1,0],[0.25,1,0],[0.5,1,0],[0.75,1,0],[1,1,0],[0,0.25,0],[0,0.5,0],[0,0.75,0],[1,0.25,0],[1,0.5,0],[1,0.75,0]];outlineConnect=0;fontColor=#232F3E;gradientColor=#F78E04;gradientDirection=north;fillColor=#D05C17;strokeColor=#ffffff;dashed=0;verticalLabelPosition=bottom;verticalAlign=top;align=center;html=1;fontSize=17;fontStyle=0;aspect=fixed;shape=mxgraph.aws4.resourceIcon;resIcon=mxgraph.aws4.elastic_beanstalk;fontFamily=PT Mono;fontSource=https%3A%2F%2Ffonts.googleapis.com%2Fcss%3Ffamily%3DPT%2BMono;" parent="1" vertex="1">
          <mxGeometry x="818" y="-480" width="78" height="78" as="geometry" />
        </mxCell>
        <mxCell id="X5J0RskGUfn2iMmxmOIG-50" style="edgeStyle=orthogonalEdgeStyle;rounded=0;orthogonalLoop=1;jettySize=auto;html=1;entryX=1;entryY=0.5;entryDx=0;entryDy=0;entryPerimeter=0;endFill=1;targetPerimeterSpacing=3;fontSize=23;fontColor=#232F3E;fontFamily=PT Mono;fontSource=https%3A%2F%2Ffonts.googleapis.com%2Fcss%3Ffamily%3DPT%2BMono;" parent="1" source="X5J0RskGUfn2iMmxmOIG-5" target="X5J0RskGUfn2iMmxmOIG-9" edge="1">
          <mxGeometry relative="1" as="geometry" />
        </mxCell>
        <mxCell id="X5J0RskGUfn2iMmxmOIG-33" style="edgeStyle=orthogonalEdgeStyle;rounded=0;orthogonalLoop=1;jettySize=auto;html=1;entryX=0.5;entryY=0;entryDx=0;entryDy=0;entryPerimeter=0;endFill=1;targetPerimeterSpacing=3;fontSize=23;fontColor=#232F3E;startArrow=classic;startFill=1;endArrow=classic;fontFamily=PT Mono;fontSource=https%3A%2F%2Ffonts.googleapis.com%2Fcss%3Ffamily%3DPT%2BMono;" parent="1" source="X5J0RskGUfn2iMmxmOIG-7" target="X5J0RskGUfn2iMmxmOIG-5" edge="1">
          <mxGeometry relative="1" as="geometry" />
        </mxCell>
        <mxCell id="X5J0RskGUfn2iMmxmOIG-49" value="Route: /api/*" style="edgeLabel;html=1;align=center;verticalAlign=middle;resizable=0;points=[];fontSize=23;fontColor=#232F3E;fontFamily=PT Mono;fontSource=https%3A%2F%2Ffonts.googleapis.com%2Fcss%3Ffamily%3DPT%2BMono;" parent="X5J0RskGUfn2iMmxmOIG-33" vertex="1" connectable="0">
          <mxGeometry x="0.4378" y="26" relative="1" as="geometry">
            <mxPoint x="-15" as="offset" />
          </mxGeometry>
        </mxCell>
        <mxCell id="X5J0RskGUfn2iMmxmOIG-34" style="edgeStyle=orthogonalEdgeStyle;rounded=0;orthogonalLoop=1;jettySize=auto;html=1;endFill=1;targetPerimeterSpacing=3;fontSize=23;fontColor=#232F3E;startArrow=classic;startFill=1;endArrow=classic;fontFamily=PT Mono;fontSource=https%3A%2F%2Ffonts.googleapis.com%2Fcss%3Ffamily%3DPT%2BMono;" parent="1" source="X5J0RskGUfn2iMmxmOIG-7" target="X5J0RskGUfn2iMmxmOIG-8" edge="1">
          <mxGeometry relative="1" as="geometry" />
        </mxCell>
        <mxCell id="X5J0RskGUfn2iMmxmOIG-48" value="Long running tasks.&lt;br&gt;Routes:&lt;br&gt;/api/articles/publish&lt;br&gt;/api/run-analytics-job" style="edgeLabel;html=1;align=center;verticalAlign=middle;resizable=0;points=[];fontSize=23;fontColor=#232F3E;fontFamily=PT Mono;fontSource=https%3A%2F%2Ffonts.googleapis.com%2Fcss%3Ffamily%3DPT%2BMono;" parent="X5J0RskGUfn2iMmxmOIG-34" vertex="1" connectable="0">
          <mxGeometry x="-0.145" y="-59" relative="1" as="geometry">
            <mxPoint x="81.43" y="13" as="offset" />
          </mxGeometry>
        </mxCell>
        <mxCell id="X5J0RskGUfn2iMmxmOIG-7" value="&lt;font style=&quot;font-size: 17px;&quot;&gt;API Gateway&lt;br style=&quot;font-size: 17px;&quot;&gt;&lt;/font&gt;" style="points=[[0,0,0],[0.25,0,0],[0.5,0,0],[0.75,0,0],[1,0,0],[0,1,0],[0.25,1,0],[0.5,1,0],[0.75,1,0],[1,1,0],[0,0.25,0],[0,0.5,0],[0,0.75,0],[1,0.25,0],[1,0.5,0],[1,0.75,0]];outlineConnect=0;fontColor=#232F3E;gradientColor=#F54749;gradientDirection=north;fillColor=#C7131F;strokeColor=#ffffff;dashed=0;verticalLabelPosition=bottom;verticalAlign=top;align=center;html=1;fontSize=17;fontStyle=0;aspect=fixed;shape=mxgraph.aws4.resourceIcon;resIcon=mxgraph.aws4.api_gateway;fontFamily=PT Mono;fontSource=https%3A%2F%2Ffonts.googleapis.com%2Fcss%3Ffamily%3DPT%2BMono;" parent="1" vertex="1">
          <mxGeometry x="508" y="-251" width="78" height="78" as="geometry" />
        </mxCell>
        <mxCell id="X5J0RskGUfn2iMmxmOIG-35" style="edgeStyle=orthogonalEdgeStyle;rounded=0;orthogonalLoop=1;jettySize=auto;html=1;endFill=1;targetPerimeterSpacing=3;fontSize=23;fontColor=#232F3E;startArrow=classic;startFill=1;endArrow=classic;fontFamily=PT Mono;fontSource=https%3A%2F%2Ffonts.googleapis.com%2Fcss%3Ffamily%3DPT%2BMono;" parent="1" source="X5J0RskGUfn2iMmxmOIG-8" target="X5J0RskGUfn2iMmxmOIG-11" edge="1">
          <mxGeometry relative="1" as="geometry" />
        </mxCell>
        <mxCell id="X5J0RskGUfn2iMmxmOIG-63" value="Creates ephemeral cluster&lt;br&gt;to run MapReduce steps" style="edgeLabel;html=1;align=center;verticalAlign=middle;resizable=0;points=[];fontSize=23;fontColor=#232F3E;fontFamily=PT Mono;fontSource=https%3A%2F%2Ffonts.googleapis.com%2Fcss%3Ffamily%3DPT%2BMono;" parent="X5J0RskGUfn2iMmxmOIG-35" vertex="1" connectable="0">
          <mxGeometry x="-0.0942" y="-2" relative="1" as="geometry">
            <mxPoint x="17.57" y="-2" as="offset" />
          </mxGeometry>
        </mxCell>
        <mxCell id="X5J0RskGUfn2iMmxmOIG-58" style="edgeStyle=orthogonalEdgeStyle;rounded=0;orthogonalLoop=1;jettySize=auto;html=1;exitX=0;exitY=1;exitDx=0;exitDy=0;exitPerimeter=0;entryX=0.5;entryY=0;entryDx=0;entryDy=0;entryPerimeter=0;endFill=1;targetPerimeterSpacing=3;fontSize=23;fontColor=#232F3E;startArrow=classic;startFill=1;endArrow=classic;fontFamily=PT Mono;fontSource=https%3A%2F%2Ffonts.googleapis.com%2Fcss%3Ffamily%3DPT%2BMono;" parent="1" source="X5J0RskGUfn2iMmxmOIG-8" target="X5J0RskGUfn2iMmxmOIG-41" edge="1">
          <mxGeometry relative="1" as="geometry" />
        </mxCell>
        <mxCell id="X5J0RskGUfn2iMmxmOIG-60" value="Uploads documents" style="edgeLabel;html=1;align=center;verticalAlign=middle;resizable=0;points=[];fontSize=23;fontColor=#232F3E;fontFamily=PT Mono;fontSource=https%3A%2F%2Ffonts.googleapis.com%2Fcss%3Ffamily%3DPT%2BMono;" parent="X5J0RskGUfn2iMmxmOIG-58" vertex="1" connectable="0">
          <mxGeometry x="0.2304" y="-1" relative="1" as="geometry">
            <mxPoint x="39.14" y="-23" as="offset" />
          </mxGeometry>
        </mxCell>
        <mxCell id="X5J0RskGUfn2iMmxmOIG-59" style="edgeStyle=orthogonalEdgeStyle;rounded=0;orthogonalLoop=1;jettySize=auto;html=1;endFill=1;targetPerimeterSpacing=3;fontSize=23;fontColor=#232F3E;exitX=1;exitY=1;exitDx=0;exitDy=0;exitPerimeter=0;startArrow=classic;startFill=1;endArrow=classic;fontFamily=PT Mono;fontSource=https%3A%2F%2Ffonts.googleapis.com%2Fcss%3Ffamily%3DPT%2BMono;" parent="1" source="X5J0RskGUfn2iMmxmOIG-8" target="X5J0RskGUfn2iMmxmOIG-12" edge="1">
          <mxGeometry relative="1" as="geometry" />
        </mxCell>
        <mxCell id="X5J0RskGUfn2iMmxmOIG-62" value="Prepares input data&lt;br&gt;and MapReducer.jar" style="edgeLabel;html=1;align=center;verticalAlign=middle;resizable=0;points=[];fontSize=23;fontColor=#232F3E;fontFamily=PT Mono;fontSource=https%3A%2F%2Ffonts.googleapis.com%2Fcss%3Ffamily%3DPT%2BMono;" parent="X5J0RskGUfn2iMmxmOIG-59" vertex="1" connectable="0">
          <mxGeometry x="-0.1007" y="1" relative="1" as="geometry">
            <mxPoint x="77.28999999999999" y="57" as="offset" />
          </mxGeometry>
        </mxCell>
        <mxCell id="X5J0RskGUfn2iMmxmOIG-8" value="&lt;font style=&quot;font-size: 17px&quot;&gt;Lambda&lt;br style=&quot;font-size: 17px&quot;&gt;&lt;/font&gt;" style="points=[[0,0,0],[0.25,0,0],[0.5,0,0],[0.75,0,0],[1,0,0],[0,1,0],[0.25,1,0],[0.5,1,0],[0.75,1,0],[1,1,0],[0,0.25,0],[0,0.5,0],[0,0.75,0],[1,0.25,0],[1,0.5,0],[1,0.75,0]];outlineConnect=0;fontColor=#232F3E;gradientColor=#F78E04;gradientDirection=north;fillColor=#D05C17;strokeColor=#ffffff;dashed=0;verticalLabelPosition=bottom;verticalAlign=top;align=center;html=1;fontSize=17;fontStyle=0;aspect=fixed;shape=mxgraph.aws4.resourceIcon;resIcon=mxgraph.aws4.lambda;fontFamily=PT Mono;fontSource=https%3A%2F%2Ffonts.googleapis.com%2Fcss%3Ffamily%3DPT%2BMono;" parent="1" vertex="1">
          <mxGeometry x="843" y="30" width="78" height="78" as="geometry" />
        </mxCell>
        <mxCell id="X5J0RskGUfn2iMmxmOIG-9" value="&lt;font style=&quot;font-size: 17px;&quot;&gt;NodeJS Service&lt;/font&gt;" style="outlineConnect=0;dashed=0;verticalLabelPosition=bottom;verticalAlign=top;align=center;html=1;shape=mxgraph.aws3.android;fillColor=#8CC64F;gradientColor=none;fontSize=17;fontFamily=PT Mono;fontSource=https%3A%2F%2Ffonts.googleapis.com%2Fcss%3Ffamily%3DPT%2BMono;" parent="1" vertex="1">
          <mxGeometry x="20" y="17" width="73.5" height="84" as="geometry" />
        </mxCell>
        <mxCell id="X5J0RskGUfn2iMmxmOIG-55" style="edgeStyle=orthogonalEdgeStyle;rounded=0;orthogonalLoop=1;jettySize=auto;html=1;entryX=1;entryY=0.5;entryDx=0;entryDy=0;entryPerimeter=0;endFill=1;targetPerimeterSpacing=3;fontSize=23;fontColor=#232F3E;exitX=0.25;exitY=1;exitDx=0;exitDy=0;exitPerimeter=0;startArrow=classic;startFill=1;endArrow=classic;fontFamily=PT Mono;fontSource=https%3A%2F%2Ffonts.googleapis.com%2Fcss%3Ffamily%3DPT%2BMono;" parent="1" source="X5J0RskGUfn2iMmxmOIG-11" target="X5J0RskGUfn2iMmxmOIG-12" edge="1">
          <mxGeometry relative="1" as="geometry" />
        </mxCell>
        <mxCell id="X5J0RskGUfn2iMmxmOIG-56" value="Reads input data and MapReducer.jar,&lt;br&gt;and writes output" style="edgeLabel;html=1;align=center;verticalAlign=middle;resizable=0;points=[];fontSize=23;fontColor=#232F3E;fontFamily=PT Mono;fontSource=https%3A%2F%2Ffonts.googleapis.com%2Fcss%3Ffamily%3DPT%2BMono;" parent="X5J0RskGUfn2iMmxmOIG-55" vertex="1" connectable="0">
          <mxGeometry x="0.015" y="2" relative="1" as="geometry">
            <mxPoint x="74.28999999999999" y="-51" as="offset" />
          </mxGeometry>
        </mxCell>
        <mxCell id="X5J0RskGUfn2iMmxmOIG-11" value="&lt;font style=&quot;font-size: 17px;&quot;&gt;EMR&lt;/font&gt;" style="points=[[0,0,0],[0.25,0,0],[0.5,0,0],[0.75,0,0],[1,0,0],[0,1,0],[0.25,1,0],[0.5,1,0],[0.75,1,0],[1,1,0],[0,0.25,0],[0,0.5,0],[0,0.75,0],[1,0.25,0],[1,0.5,0],[1,0.75,0]];outlineConnect=0;fontColor=#232F3E;gradientColor=#945DF2;gradientDirection=north;fillColor=#5A30B5;strokeColor=#ffffff;dashed=0;verticalLabelPosition=bottom;verticalAlign=top;align=center;html=1;fontSize=17;fontStyle=0;aspect=fixed;shape=mxgraph.aws4.resourceIcon;resIcon=mxgraph.aws4.emr;fontFamily=PT Mono;fontSource=https%3A%2F%2Ffonts.googleapis.com%2Fcss%3Ffamily%3DPT%2BMono;" parent="1" vertex="1">
          <mxGeometry x="1350" y="180" width="78" height="78" as="geometry" />
        </mxCell>
        <mxCell id="X5J0RskGUfn2iMmxmOIG-12" value="&lt;font style=&quot;font-size: 17px&quot;&gt;Analytics S3 Bucket&lt;br style=&quot;font-size: 17px&quot;&gt;&lt;/font&gt;" style="points=[[0,0,0],[0.25,0,0],[0.5,0,0],[0.75,0,0],[1,0,0],[0,1,0],[0.25,1,0],[0.5,1,0],[0.75,1,0],[1,1,0],[0,0.25,0],[0,0.5,0],[0,0.75,0],[1,0.25,0],[1,0.5,0],[1,0.75,0]];outlineConnect=0;fontColor=#232F3E;gradientColor=#60A337;gradientDirection=north;fillColor=#277116;strokeColor=#ffffff;dashed=0;verticalLabelPosition=bottom;verticalAlign=top;align=center;html=1;fontSize=17;fontStyle=0;aspect=fixed;shape=mxgraph.aws4.resourceIcon;resIcon=mxgraph.aws4.s3;fontFamily=PT Mono;fontSource=https%3A%2F%2Ffonts.googleapis.com%2Fcss%3Ffamily%3DPT%2BMono;" parent="1" vertex="1">
          <mxGeometry x="1040" y="500" width="78" height="78" as="geometry" />
        </mxCell>
        <mxCell id="X5J0RskGUfn2iMmxmOIG-18" value="&lt;font style=&quot;font-size: 17px;&quot;&gt;React Frontend&lt;br style=&quot;font-size: 17px;&quot;&gt;&lt;/font&gt;" style="shape=image;html=1;verticalAlign=top;verticalLabelPosition=bottom;labelBackgroundColor=#ffffff;imageAspect=0;aspect=fixed;image=https://cdn0.iconfinder.com/data/icons/logos-brands-in-colors/128/react_color-128.png;fontSize=17;fontFamily=PT Mono;fontSource=https%3A%2F%2Ffonts.googleapis.com%2Fcss%3Ffamily%3DPT%2BMono;" parent="1" vertex="1">
          <mxGeometry x="1140" y="-483" width="84" height="84" as="geometry" />
        </mxCell>
        <mxCell id="X5J0RskGUfn2iMmxmOIG-23" style="edgeStyle=orthogonalEdgeStyle;rounded=0;orthogonalLoop=1;jettySize=auto;html=1;endArrow=classic;endFill=1;fontSize=23;fontColor=#232F3E;targetPerimeterSpacing=2;fontFamily=PT Mono;fontSource=https%3A%2F%2Ffonts.googleapis.com%2Fcss%3Ffamily%3DPT%2BMono;" parent="1" target="X5J0RskGUfn2iMmxmOIG-3" edge="1">
          <mxGeometry relative="1" as="geometry">
            <mxPoint x="857" y="-702.0000000000002" as="sourcePoint" />
          </mxGeometry>
        </mxCell>
        <mxCell id="X5J0RskGUfn2iMmxmOIG-41" value="&lt;font style=&quot;font-size: 17px&quot;&gt;Publication documents&lt;br&gt;&amp;nbsp;S3 Bucket&lt;br style=&quot;font-size: 17px&quot;&gt;&lt;/font&gt;" style="points=[[0,0,0],[0.25,0,0],[0.5,0,0],[0.75,0,0],[1,0,0],[0,1,0],[0.25,1,0],[0.5,1,0],[0.75,1,0],[1,1,0],[0,0.25,0],[0,0.5,0],[0,0.75,0],[1,0.25,0],[1,0.5,0],[1,0.75,0]];outlineConnect=0;fontColor=#232F3E;gradientColor=#60A337;gradientDirection=north;fillColor=#277116;strokeColor=#ffffff;dashed=0;verticalLabelPosition=bottom;verticalAlign=top;align=center;html=1;fontSize=17;fontStyle=0;aspect=fixed;shape=mxgraph.aws4.resourceIcon;resIcon=mxgraph.aws4.s3;fontFamily=PT Mono;fontSource=https%3A%2F%2Ffonts.googleapis.com%2Fcss%3Ffamily%3DPT%2BMono;" parent="1" vertex="1">
          <mxGeometry x="500" y="500" width="78" height="78" as="geometry" />
        </mxCell>
        <mxCell id="X5J0RskGUfn2iMmxmOIG-5" value="&lt;font data-font-src=&quot;https://fonts.googleapis.com/css?family=Permanent+Marker&quot; style=&quot;font-size: 17px;&quot;&gt;ECS&lt;/font&gt;" style="points=[[0,0,0],[0.25,0,0],[0.5,0,0],[0.75,0,0],[1,0,0],[0,1,0],[0.25,1,0],[0.5,1,0],[0.75,1,0],[1,1,0],[0,0.25,0],[0,0.5,0],[0,0.75,0],[1,0.25,0],[1,0.5,0],[1,0.75,0]];outlineConnect=0;fontColor=#232F3E;gradientColor=#F78E04;gradientDirection=north;fillColor=#D05C17;strokeColor=#ffffff;dashed=0;verticalLabelPosition=bottom;verticalAlign=top;align=center;html=1;fontSize=17;fontStyle=0;aspect=fixed;shape=mxgraph.aws4.resourceIcon;resIcon=mxgraph.aws4.ecs;fontFamily=PT Mono;fontSource=https%3A%2F%2Ffonts.googleapis.com%2Fcss%3Ffamily%3DPT%2BMono;" parent="1" vertex="1">
          <mxGeometry x="140" y="20" width="78" height="78" as="geometry" />
        </mxCell>
        <mxCell id="X5J0RskGUfn2iMmxmOIG-67" value="CloudFormation" style="points=[[0,0,0],[0.25,0,0],[0.5,0,0],[0.75,0,0],[1,0,0],[0,1,0],[0.25,1,0],[0.5,1,0],[0.75,1,0],[1,1,0],[0,0.25,0],[0,0.5,0],[0,0.75,0],[1,0.25,0],[1,0.5,0],[1,0.75,0]];points=[[0,0,0],[0.25,0,0],[0.5,0,0],[0.75,0,0],[1,0,0],[0,1,0],[0.25,1,0],[0.5,1,0],[0.75,1,0],[1,1,0],[0,0.25,0],[0,0.5,0],[0,0.75,0],[1,0.25,0],[1,0.5,0],[1,0.75,0]];outlineConnect=0;fontColor=#232F3E;gradientColor=#F34482;gradientDirection=north;fillColor=#BC1356;strokeColor=#ffffff;dashed=0;verticalLabelPosition=bottom;verticalAlign=top;align=center;html=1;fontSize=17;fontStyle=0;aspect=fixed;shape=mxgraph.aws4.resourceIcon;resIcon=mxgraph.aws4.cloudformation;labelBackgroundColor=#ffffff;fontFamily=PT Mono;fontSource=https%3A%2F%2Ffonts.googleapis.com%2Fcss%3Ffamily%3DPT%2BMono;" parent="1" vertex="1">
          <mxGeometry x="1491" y="-143" width="78" height="78" as="geometry" />
        </mxCell>
        <mxCell id="X5J0RskGUfn2iMmxmOIG-68" value="&lt;font style=&quot;font-size: 17px&quot;&gt;Cloud Development Kit&lt;br&gt;(CDK)&lt;/font&gt;" style="points=[[0,0,0],[0.25,0,0],[0.5,0,0],[0.75,0,0],[1,0,0],[0,1,0],[0.25,1,0],[0.5,1,0],[0.75,1,0],[1,1,0],[0,0.25,0],[0,0.5,0],[0,0.75,0],[1,0.25,0],[1,0.5,0],[1,0.75,0]];outlineConnect=0;fontColor=#232F3E;gradientColor=#4D72F3;gradientDirection=north;fillColor=#3334B9;strokeColor=#ffffff;dashed=0;verticalLabelPosition=bottom;verticalAlign=top;align=center;html=1;fontSize=17;fontStyle=0;aspect=fixed;shape=mxgraph.aws4.resourceIcon;resIcon=mxgraph.aws4.cloud_development_kit;labelBackgroundColor=#ffffff;fontFamily=PT Mono;fontSource=https%3A%2F%2Ffonts.googleapis.com%2Fcss%3Ffamily%3DPT%2BMono;" parent="1" vertex="1">
          <mxGeometry x="1491" y="-345" width="78" height="78" as="geometry" />
        </mxCell>
        <mxCell id="X5J0RskGUfn2iMmxmOIG-74" value="Orchestration" style="text;html=1;align=center;verticalAlign=middle;resizable=0;points=[];autosize=1;fontSize=24;fontFamily=PT Mono;fontColor=#232F3E;" parent="1" vertex="1">
          <mxGeometry x="1430" y="-430" width="200" height="30" as="geometry" />
        </mxCell>
        <mxCell id="wa0tHppYLoDH_IEBGXLA-3" value="WWW" style="outlineConnect=0;dashed=0;verticalLabelPosition=bottom;verticalAlign=top;align=center;html=1;shape=mxgraph.aws3.internet_gateway;fillColor=#F58534;gradientColor=none;labelBackgroundColor=#ffffff;strokeColor=#000000;fontFamily=PT Mono;fontSource=https%3A%2F%2Ffonts.googleapis.com%2Fcss%3Ffamily%3DPT%2BMono;fontSize=24;fontColor=#232F3E;" parent="1" vertex="1">
          <mxGeometry x="815.79" y="-820" width="82.42" height="86" as="geometry" />
        </mxCell>
      </root>
    </mxGraphModel>
  </diagram>
</mxfile>
